<?xml version="1.0" encoding="UTF-8"?>
<svg width="535px" height="105px" viewBox="0 0 535 105" version="1.1" xmlns="http://www.w3.org/2000/svg" xmlns:xlink="http://www.w3.org/1999/xlink">
    <!-- Generator: Sketch 52.5 (67469) - http://www.bohemiancoding.com/sketch -->
    <title>Group</title>
    <desc>Created with Sketch.</desc>
    <g id="Final-Design---V1.2" stroke="none" stroke-width="1" fill="none" fill-rule="evenodd">
        <g id="Homepage" transform="translate(-793.000000, -360.000000)" fill="#FFFFFF">
            <g id="Group" transform="translate(793.000000, 360.000000)">
                <path d="M29.77,21.39 C39.6700495,21.39 47.2233073,23.6449775 52.43,28.155 C57.6366927,32.6650226 60.24,39.5766201 60.24,48.89 L60.24,82 L40.77,82 L40.77,74.3 C37.7633183,80.0933623 31.8967103,82.99 23.17,82.99 C18.5499769,82.99 14.5533502,82.1833414 11.18,80.57 C7.8066498,78.9566586 5.25834195,76.7750138 3.535,74.025 C1.81165805,71.2749863 0.95,68.1400176 0.95,64.62 C0.95,58.9733051 3.1133117,54.5916823 7.44,51.475 C11.7666883,48.3583178 18.4399549,46.8 27.46,46.8 L39.34,46.8 C38.9733315,40.4933018 34.756707,37.34 26.69,37.34 C23.8299857,37.34 20.933348,37.7983288 18,38.715 C15.066652,39.6316713 12.5733436,40.8966586 10.52,42.51 L3.48,28.32 C6.7800165,26.119989 10.7949764,24.4150061 15.525,23.205 C20.2550237,21.994994 25.0033095,21.39 29.77,21.39 Z M29,69.79 C31.4200121,69.79 33.5466575,69.2033392 35.38,68.03 C37.2133425,66.8566608 38.5333293,65.1333447 39.34,62.86 L39.34,57.69 L30.32,57.69 C24.2333029,57.69 21.19,59.7066465 21.19,63.74 C21.19,65.5733425 21.8866597,67.0399945 23.28,68.14 C24.6733403,69.2400055 26.5799879,69.79 29,69.79 Z M104.79,82.99 C98.189967,82.99 92.2866927,81.6700132 87.08,79.03 C81.8733073,76.3899868 77.8216812,72.7233568 74.925,68.03 C72.0283189,63.3366432 70.58,58.0200297 70.58,52.08 C70.58,46.1399703 72.0283189,40.84169 74.925,36.185 C77.8216812,31.5283101 81.8733073,27.8983464 87.08,25.295 C92.2866927,22.6916537 98.189967,21.39 104.79,21.39 C111.5367,21.39 117.366642,22.8383189 122.28,25.735 C127.193358,28.6316812 130.676656,32.646641 132.73,37.78 L116.56,46.03 C113.846653,40.6766399 109.886693,38 104.68,38 C100.939981,38 97.841679,39.2466542 95.385,41.74 C92.9283211,44.2333458 91.7,47.679978 91.7,52.08 C91.7,56.5533557 92.9283211,60.0549874 95.385,62.585 C97.841679,65.1150127 100.939981,66.38 104.68,66.38 C109.886693,66.38 113.846653,63.7033601 116.56,58.35 L132.73,66.6 C130.676656,71.733359 127.193358,75.7483189 122.28,78.645 C117.366642,81.5416812 111.5367,82.99 104.79,82.99 Z M166.06,21.39 C175.96005,21.39 183.513307,23.6449775 188.72,28.155 C193.926693,32.6650226 196.53,39.5766201 196.53,48.89 L196.53,82 L177.06,82 L177.06,74.3 C174.053318,80.0933623 168.18671,82.99 159.46,82.99 C154.839977,82.99 150.84335,82.1833414 147.47,80.57 C144.09665,78.9566586 141.548342,76.7750138 139.825,74.025 C138.101658,71.2749863 137.24,68.1400176 137.24,64.62 C137.24,58.9733051 139.403312,54.5916823 143.73,51.475 C148.056688,48.3583178 154.729955,46.8 163.75,46.8 L175.63,46.8 C175.263332,40.4933018 171.046707,37.34 162.98,37.34 C160.119986,37.34 157.223348,37.7983288 154.29,38.715 C151.356652,39.6316713 148.863344,40.8966586 146.81,42.51 L139.77,28.32 C143.070017,26.119989 147.084976,24.4150061 151.815,23.205 C156.545024,21.994994 161.29331,21.39 166.06,21.39 Z M165.29,69.79 C167.710012,69.79 169.836658,69.2033392 171.67,68.03 C173.503343,66.8566608 174.823329,65.1333447 175.63,62.86 L175.63,57.69 L166.61,57.69 C160.523303,57.69 157.48,59.7066465 157.48,63.74 C157.48,65.5733425 158.17666,67.0399945 159.57,68.14 C160.96334,69.2400055 162.869988,69.79 165.29,69.79 Z M273.97,0.38 L273.97,82 L254.06,82 L254.06,76.06 C250.173314,80.6800231 244.343372,82.99 236.57,82.99 C231.143306,82.99 226.193356,81.7250127 221.72,79.195 C217.246644,76.6649874 213.708346,73.0533568 211.105,68.36 C208.501654,63.6666432 207.2,58.2400308 207.2,52.08 C207.2,45.9199692 208.501654,40.51169 211.105,35.855 C213.708346,31.1983101 217.246644,27.6233458 221.72,25.13 C226.193356,22.6366542 231.143306,21.39 236.57,21.39 C243.683369,21.39 249.183314,23.4433128 253.07,27.55 L253.07,0.38 L273.97,0.38 Z M240.97,66.38 C244.563351,66.38 247.533322,65.1150127 249.88,62.585 C252.226678,60.0549874 253.4,56.5533557 253.4,52.08 C253.4,47.679978 252.245012,44.2333458 249.935,41.74 C247.624988,39.2466542 244.636685,38 240.97,38 C237.303315,38 234.296678,39.2466542 231.95,41.74 C229.603322,44.2333458 228.43,47.679978 228.43,52.08 C228.43,56.5533557 229.603322,60.0549874 231.95,62.585 C234.296678,65.1150127 237.303315,66.38 240.97,66.38 Z M348.33,52.3 C348.33,52.4466674 348.220001,54.1699835 348,57.47 L304.66,57.47 C305.540004,60.5500154 307.244987,62.9149918 309.775,64.565 C312.305013,66.2150083 315.476648,67.04 319.29,67.04 C322.150014,67.04 324.62499,66.6366707 326.715,65.83 C328.80501,65.0233293 330.913323,63.7033425 333.04,61.87 L344.04,73.31 C338.246638,79.7633656 329.776722,82.99 318.63,82.99 C311.663299,82.99 305.540026,81.6700132 300.26,79.03 C294.979974,76.3899868 290.891681,72.7233568 287.995,68.03 C285.098319,63.3366432 283.65,58.0200297 283.65,52.08 C283.65,46.213304 285.061653,40.95169 287.885,36.295 C290.708347,31.6383101 294.613308,27.9900132 299.6,25.35 C304.586692,22.7099868 310.196636,21.39 316.43,21.39 C322.37003,21.39 327.759976,22.6183211 332.6,25.075 C337.440024,27.531679 341.271653,31.0883101 344.095,35.745 C346.918347,40.40169 348.33,45.9199681 348.33,52.3 Z M316.54,36.24 C313.313317,36.24 310.618344,37.1566575 308.455,38.99 C306.291656,40.8233425 304.91667,43.3166509 304.33,46.47 L328.75,46.47 C328.16333,43.3166509 326.788344,40.8233425 324.625,38.99 C322.461656,37.1566575 319.766683,36.24 316.54,36.24 Z M435.67,21.39 C443.00337,21.39 448.851645,23.589978 453.215,27.99 C457.578355,32.390022 459.76,39.0266223 459.76,47.9 L459.76,82 L438.86,82 L438.86,51.31 C438.86,47.1299791 438.071675,44.0500099 436.495,42.07 C434.918325,40.0899901 432.700014,39.1 429.84,39.1 C426.686651,39.1 424.156676,40.199989 422.25,42.4 C420.343324,44.600011 419.39,47.9366443 419.39,52.41 L419.39,82 L398.49,82 L398.49,51.31 C398.49,43.1699593 395.483363,39.1 389.47,39.1 C386.243317,39.1 383.676676,40.199989 381.77,42.4 C379.863324,44.600011 378.91,47.9366443 378.91,52.41 L378.91,82 L358.01,82 L358.01,22.38 L377.92,22.38 L377.92,28.65 C380.120011,26.2299879 382.741651,24.4150061 385.785,23.205 C388.828349,21.994994 392.146649,21.39 395.74,21.39 C399.920021,21.39 403.659984,22.1599923 406.96,23.7 C410.260017,25.2400077 412.936656,27.5866509 414.99,30.74 C417.336678,27.7333183 420.306649,25.4233414 423.9,23.81 C427.493351,22.1966586 431.416645,21.39 435.67,21.39 Z M534.67,22.38 L508.93,84.42 C505.923318,91.75337 502.256688,96.9049852 497.93,99.875 C493.603312,102.845015 488.323365,104.33 482.09,104.33 C478.936651,104.33 475.765016,103.835005 472.575,102.845 C469.384984,101.854995 466.80001,100.553341 464.82,98.94 L472.08,84.31 C473.253339,85.4100055 474.664992,86.2716636 476.315,86.895 C477.965008,87.5183365 479.633325,87.83 481.32,87.83 C483.30001,87.83 484.93166,87.4266707 486.215,86.62 C487.49834,85.8133293 488.579996,84.5300088 489.46,82.77 L463.94,22.38 L485.39,22.38 L500.02,58.79 L514.76,22.38 L534.67,22.38 Z" id="academy"></path>
            </g>
        </g>
    </g>
</svg>