<?xml version="1.0" encoding="UTF-8"?>
<svg width="376px" height="112px" viewBox="0 0 376 112" version="1.1" xmlns="http://www.w3.org/2000/svg" xmlns:xlink="http://www.w3.org/1999/xlink">
    <!-- Generator: Sketch 52.5 (67469) - http://www.bohemiancoding.com/sketch -->
    <title>Group</title>
    <desc>Created with Sketch.</desc>
    <g id="Final-Design---V1.2" stroke="none" stroke-width="1" fill="none" fill-rule="evenodd">
        <g id="Homepage" transform="translate(-230.000000, -239.000000)">
            <g id="Group" transform="translate(230.000000, 239.000000)">
                <path d="M0.37,12 L36.78,12 C45.2133755,12 52.6933007,13.5766509 59.22,16.73 C65.7466993,19.8833491 70.8066487,24.3566377 74.4,30.15 C77.9933513,35.9433623 79.79,42.7266278 79.79,50.5 C79.79,58.2733722 77.9933513,65.0566377 74.4,70.85 C70.8066487,76.6433623 65.7466993,81.1166509 59.22,84.27 C52.6933007,87.4233491 45.2133755,89 36.78,89 L0.37,89 L0.37,12 Z M35.9,71.62 C42.500033,71.62 47.7983134,69.7500187 51.795,66.01 C55.7916867,62.2699813 57.79,57.100033 57.79,50.5 C57.79,43.899967 55.7916867,38.7300187 51.795,34.99 C47.7983134,31.2499813 42.500033,29.38 35.9,29.38 L22.15,29.38 L22.15,71.62 L35.9,71.62 Z M90.24,29.38 L111.14,29.38 L111.14,89 L90.24,89 L90.24,29.38 Z M100.69,22.78 C96.8766476,22.78 93.7966784,21.7166773 91.45,19.59 C89.1033216,17.4633227 87.93,14.8233491 87.93,11.67 C87.93,8.5166509 89.1033216,5.8766773 91.45,3.75 C93.7966784,1.6233227 96.8766476,0.56 100.69,0.56 C104.503352,0.56 107.583322,1.56832325 109.93,3.585 C112.276678,5.60167675 113.45,8.1866509 113.45,11.34 C113.45,14.6400165 112.276678,17.3716559 109.93,19.535 C107.583322,21.6983442 104.503352,22.78 100.69,22.78 Z M188.8,29.38 L188.8,78.11 C188.8,89.1833887 185.793363,97.4883057 179.78,103.025 C173.766637,108.561694 165.11339,111.33 153.82,111.33 C147.953304,111.33 142.453359,110.670007 137.32,109.35 C132.186641,108.029993 127.823351,106.08668 124.23,103.52 L131.82,88.89 C134.240012,90.8700099 137.301648,92.4283277 141.005,93.565 C144.708352,94.7016724 148.356649,95.27 151.95,95.27 C157.450028,95.27 161.483321,94.0600121 164.05,91.64 C166.61668,89.2199879 167.9,85.6266905 167.9,80.86 L167.9,78.88 C163.866647,83.5733568 157.963372,85.92 150.19,85.92 C144.909974,85.92 140.033356,84.7283453 135.56,82.345 C131.086644,79.9616548 127.530013,76.5883552 124.89,72.225 C122.249987,67.8616449 120.93,62.8200286 120.93,57.1 C120.93,51.4533051 122.249987,46.4483552 124.89,42.085 C127.530013,37.7216449 131.086644,34.3483453 135.56,31.965 C140.033356,29.5816548 144.909974,28.39 150.19,28.39 C158.696709,28.39 164.92998,31.1399725 168.89,36.64 L168.89,29.38 L188.8,29.38 Z M155.14,69.31 C158.880019,69.31 161.978321,68.1733447 164.435,65.9 C166.891679,63.6266553 168.12,60.6933513 168.12,57.1 C168.12,53.5066487 166.910012,50.5916779 164.49,48.355 C162.069988,46.1183222 158.953352,45 155.14,45 C151.326648,45 148.191679,46.1183222 145.735,48.355 C143.278321,50.5916779 142.05,53.5066487 142.05,57.1 C142.05,60.6933513 143.296654,63.6266553 145.79,65.9 C148.283346,68.1733447 151.399981,69.31 155.14,69.31 Z M202.22,29.38 L223.12,29.38 L223.12,89 L202.22,89 L202.22,29.38 Z M212.67,22.78 C208.856648,22.78 205.776678,21.7166773 203.43,19.59 C201.083322,17.4633227 199.91,14.8233491 199.91,11.67 C199.91,8.5166509 201.083322,5.8766773 203.43,3.75 C205.776678,1.6233227 208.856648,0.56 212.67,0.56 C216.483352,0.56 219.563322,1.56832325 221.91,3.585 C224.256678,5.60167675 225.43,8.1866509 225.43,11.34 C225.43,14.6400165 224.256678,17.3716559 221.91,19.535 C219.563322,21.6983442 216.483352,22.78 212.67,22.78 Z M277.79,86.58 C276.029991,87.6800055 273.885013,88.5233304 271.355,89.11 C268.824987,89.6966696 266.130014,89.99 263.27,89.99 C255.496628,89.99 249.520021,88.0833524 245.34,84.27 C241.159979,80.4566476 239.07,74.7733711 239.07,67.22 L239.07,47.2 L230.38,47.2 L230.38,31.58 L239.07,31.58 L239.07,16.07 L259.97,16.07 L259.97,31.58 L273.61,31.58 L273.61,47.2 L259.97,47.2 L259.97,67 C259.97,69.1266773 260.538328,70.794994 261.675,72.005 C262.811672,73.2150061 264.333324,73.82 266.24,73.82 C268.660012,73.82 270.786658,73.1966729 272.62,71.95 L277.79,86.58 Z M311.23,28.39 C321.13005,28.39 328.683307,30.6449775 333.89,35.155 C339.096693,39.6650226 341.7,46.5766201 341.7,55.89 L341.7,89 L322.23,89 L322.23,81.3 C319.223318,87.0933623 313.35671,89.99 304.63,89.99 C300.009977,89.99 296.01335,89.1833414 292.64,87.57 C289.26665,85.9566586 286.718342,83.7750138 284.995,81.025 C283.271658,78.2749863 282.41,75.1400176 282.41,71.62 C282.41,65.9733051 284.573312,61.5916823 288.9,58.475 C293.226688,55.3583178 299.899955,53.8 308.92,53.8 L320.8,53.8 C320.433332,47.4933018 316.216707,44.34 308.15,44.34 C305.289986,44.34 302.393348,44.7983288 299.46,45.715 C296.526652,46.6316713 294.033344,47.8966586 291.98,49.51 L284.94,35.32 C288.240017,33.119989 292.254976,31.4150061 296.985,30.205 C301.715024,28.994994 306.46331,28.39 311.23,28.39 Z M310.46,76.79 C312.880012,76.79 315.006658,76.2033392 316.84,75.03 C318.673343,73.8566608 319.993329,72.1333447 320.8,69.86 L320.8,64.69 L311.78,64.69 C305.693303,64.69 302.65,66.7066465 302.65,70.74 C302.65,72.5733425 303.34666,74.0399945 304.74,75.14 C306.13334,76.2400055 308.039988,76.79 310.46,76.79 Z M354.9,7.38 L375.8,7.38 L375.8,89 L354.9,89 L354.9,7.38 Z" id="Digital-skill" fill="#FFFFFF"></path>
                <ellipse id="Oval" fill="#9D46F8" cx="100.5" cy="11.5" rx="13.5" ry="11.5"></ellipse>
                <ellipse id="Oval-Copy" fill="#481AE7" cx="212" cy="11.5" rx="14" ry="11.5"></ellipse>
            </g>
        </g>
    </g>
</svg>