<?xml version="1.0" encoding="UTF-8"?>
<svg width="494px" height="106px" viewBox="0 0 494 106" version="1.1" xmlns="http://www.w3.org/2000/svg" xmlns:xlink="http://www.w3.org/1999/xlink">
    <!-- Generator: Sketch 52.2 (67145) - http://www.bohemiancoding.com/sketch -->
    <title>logo-bitlab-fullcolor</title>
    <desc>Created with Sketch.</desc>
    <g id="logo-bitlab-fullcolor" stroke="none" stroke-width="1" fill="none" fill-rule="evenodd">
        <path d="M55.4851,74.1301 C55.4851,61.6011 51.7561,58.4691 38.9291,58.3191 L22.2241,58.3191 L22.2241,88.1511 L39.5261,88.1511 C51.9061,88.1511 55.4851,85.6151 55.4851,74.1301 M37.5871,17.1531 L22.2241,17.1531 L22.2241,43.2551 L38.7801,43.2551 C49.8171,43.2551 53.2481,40.5701 53.2481,29.9801 C53.2481,19.5391 49.5191,17.1531 37.5871,17.1531 M78.3061,78.4551 C78.3061,99.6351 68.0141,105.3031 43.4041,105.3031 C23.7141,105.3031 12.9761,105.1541 0.0001,104.1101 L0.0001,1.1931 C11.6321,0.1491 21.3291,9.99999999e-05 38.6311,9.99999999e-05 C65.4791,9.99999999e-05 75.0251,5.6681 75.0251,26.8481 C75.0251,41.6141 69.8041,49.2211 56.9771,50.4141 L56.9771,51.0111 C72.7881,52.3531 78.3061,62.0481 78.3061,78.4551" id="Fill-1" fill="#4E05B2"></path>
        <polygon id="Fill-3" fill="#4E05B2" points="91.492 105.304 114.164 105.304 114.164 0.001 91.492 0.001"></polygon>
        <polygon id="Fill-5" fill="#4E05B2" points="211.6218 18.4953 180.8958 18.4953 180.8958 105.3033 158.0748 105.3033 158.0748 18.4953 127.3498 18.4953 127.3498 0.0003 211.6218 0.0003"></polygon>
        <path d="M247.4792,78.758 C247.4792,84.128 249.7162,86.365 255.5332,86.365 L290.8832,86.365 L291.9272,103.667 C278.2052,105.158 262.9912,105.307 248.3742,105.307 C231.8182,105.307 224.8072,96.06 224.8072,83.382 L224.8072,7.10542736e-15 L247.4792,7.10542736e-15 L247.4792,78.758 Z" id="Fill-6" fill="#4E05B2"></path>
        <path d="M366.2673,59.5129 C366.2673,59.5129 355.9743,20.2849 355.5273,17.1529 L351.4993,17.1529 L340.6123,59.5129 L366.2673,59.5129 Z M371.1893,77.1129 L335.8393,77.1129 L328.3813,105.3039 L305.1133,105.3039 L334.7943,5.9659 C335.6903,2.2379 338.9713,-9.99999999e-05 342.7013,-9.99999999e-05 L364.1783,-9.99999999e-05 C368.0563,-9.99999999e-05 371.1893,2.2379 372.0833,5.9659 L401.7653,105.3039 L378.6463,105.3039 L371.1893,77.1129 Z" id="Fill-7" fill="#4E05B2"></path>
        <path d="M470.4363,74.1301 C470.4363,61.6011 466.7073,58.4691 453.8803,58.3191 L437.1753,58.3191 L437.1753,88.1511 L454.4773,88.1511 C466.8573,88.1511 470.4363,85.6151 470.4363,74.1301 M452.5383,17.1531 L437.1753,17.1531 L437.1753,43.2551 L453.7313,43.2551 C464.7683,43.2551 468.1993,40.5701 468.1993,29.9801 C468.1993,19.5391 464.4703,17.1531 452.5383,17.1531 M493.2573,78.4551 C493.2573,99.6351 482.9653,105.3031 458.3553,105.3031 C438.6653,105.3031 427.9273,105.1541 414.9513,104.1101 L414.9513,1.1931 C426.5833,0.1491 436.2803,9.99999999e-05 453.5823,9.99999999e-05 C480.4303,9.99999999e-05 489.9763,5.6681 489.9763,26.8481 C489.9763,41.6141 484.7553,49.2211 471.9283,50.4141 L471.9283,51.0111 C487.7393,52.3531 493.2573,62.0481 493.2573,78.4551" id="Fill-8" fill="#4E05B2"></path>
    </g>
</svg>