<?xml version="1.0" encoding="UTF-8" standalone="no"?>
<!-- Created with Inkscape (http://www.inkscape.org/) -->

<svg
   xmlns:dc="http://purl.org/dc/elements/1.1/"
   xmlns:cc="http://creativecommons.org/ns#"
   xmlns:rdf="http://www.w3.org/1999/02/22-rdf-syntax-ns#"
   xmlns:svg="http://www.w3.org/2000/svg"
   xmlns="http://www.w3.org/2000/svg"
   xmlns:sodipodi="http://sodipodi.sourceforge.net/DTD/sodipodi-0.dtd"
   xmlns:inkscape="http://www.inkscape.org/namespaces/inkscape"
   width="3.0406251in"
   height="0.93750006in"
   viewBox="0 0 77.231877 23.812502"
   version="1.1"
   id="svg139"
   inkscape:version="0.92.4 (33fec40, 2019-01-16)"
   sodipodi:docname="skills.svg">
  <defs
     id="defs133" />
  <sodipodi:namedview
     id="base"
     pagecolor="#ffffff"
     bordercolor="#666666"
     borderopacity="1.0"
     inkscape:pageopacity="0.0"
     inkscape:pageshadow="2"
     inkscape:zoom="0.35"
     inkscape:cx="-351.19286"
     inkscape:cy="-86.428592"
     inkscape:document-units="mm"
     inkscape:current-layer="layer1"
     showgrid="false"
     units="in"
     fit-margin-top="0"
     fit-margin-left="0"
     fit-margin-right="0"
     fit-margin-bottom="0"
     inkscape:window-width="1317"
     inkscape:window-height="713"
     inkscape:window-x="49"
     inkscape:window-y="27"
     inkscape:window-maximized="1" />
  <metadata
     id="metadata136">
    <rdf:RDF>
      <cc:Work
         rdf:about="">
        <dc:format>image/svg+xml</dc:format>
        <dc:type
           rdf:resource="http://purl.org/dc/dcmitype/StillImage" />
        <dc:title></dc:title>
      </cc:Work>
    </rdf:RDF>
  </metadata>
  <g
     inkscape:label="Capa 1"
     inkscape:groupmode="layer"
     id="layer1"
     transform="translate(-22.616205,-102.15327)">
    <path
       class="st0"
       d="m 29.601205,125.96577 c -1.322916,0 -2.619375,-0.15875 -3.889375,-0.44979 -1.27,-0.29104 -2.301875,-0.68791 -3.095625,-1.19062 l 1.666875,-3.78354 c 0.714375,0.44979 1.561042,0.79375 2.566459,1.05833 1.005416,0.26458 1.957916,0.39687 2.936875,0.39687 0.899583,0 1.534583,-0.0794 1.905,-0.26458 0.370416,-0.18521 0.555625,-0.44979 0.555625,-0.79375 0,-0.34396 -0.238125,-0.60854 -0.687917,-0.74083 -0.449792,-0.15875 -1.190625,-0.29104 -2.169583,-0.42334 -1.27,-0.15875 -2.328334,-0.37041 -3.227917,-0.60854 -0.873125,-0.26458 -1.640417,-0.71437 -2.275417,-1.40229 -0.635,-0.68792 -0.9525,-1.64042 -0.9525,-2.8575 0,-1.00542 0.291042,-1.905 0.899584,-2.69875 0.608541,-0.79375 1.481666,-1.40229 2.645833,-1.85208 1.164167,-0.44979 2.54,-0.68792 4.153958,-0.68792 1.137709,0 2.275417,0.10583 3.413125,0.34396 1.137708,0.23812 2.06375,0.55562 2.831042,0.97896 l -1.693334,3.78354 c -1.402291,-0.76729 -2.910416,-1.16417 -4.550833,-1.16417 -0.873125,0 -1.508125,0.10584 -1.931458,0.3175 -0.423333,0.21167 -0.608542,0.47625 -0.608542,0.79375 0,0.37042 0.211667,0.635 0.661459,0.76729 0.449791,0.1323 1.190625,0.29105 2.2225,0.4498 1.296458,0.1852 2.381249,0.42333 3.227916,0.66145 0.846667,0.23813 1.5875,0.71438 2.2225,1.37584 0.635,0.66146 0.9525,1.61396 0.9525,2.80458 0,0.97896 -0.291042,1.87854 -0.899583,2.67229 -0.608542,0.79375 -1.481667,1.40229 -2.672292,1.85209 -1.137708,0.44979 -2.566458,0.66145 -4.206875,0.66145 z"
       id="path26"
       inkscape:connector-curvature="0"
       style="clip-rule:evenodd;fill:#ffffff;fill-rule:evenodd;stroke-width:0.26458332" />
    <path
       class="st0"
       d="m 92.06933,125.96577 c -1.322917,0 -2.619375,-0.15875 -3.889375,-0.44979 -1.27,-0.29104 -2.301875,-0.68791 -3.095625,-1.19062 l 1.666875,-3.78354 c 0.714375,0.44979 1.561042,0.79375 2.566458,1.05833 1.005417,0.26458 1.957917,0.39687 2.936875,0.39687 0.899584,0 1.534584,-0.0794 1.905,-0.26458 0.370417,-0.18521 0.555625,-0.44979 0.555625,-0.79375 0,-0.34396 -0.238125,-0.60854 -0.687916,-0.74083 -0.449792,-0.15875 -1.190625,-0.29104 -2.169584,-0.42334 -1.27,-0.15875 -2.328333,-0.37041 -3.227916,-0.60854 -0.899584,-0.23812 -1.640417,-0.71437 -2.275417,-1.40229 -0.635,-0.68792 -0.9525,-1.64042 -0.9525,-2.8575 0,-1.00542 0.291042,-1.905 0.899583,-2.69875 0.608542,-0.79375 1.481667,-1.40229 2.645834,-1.85208 1.164166,-0.44979 2.54,-0.68792 4.153958,-0.68792 1.137708,0 2.275417,0.10583 3.413125,0.34396 1.137708,0.23812 2.06375,0.55562 2.831042,0.97896 l -1.693334,3.78354 c -1.402291,-0.76729 -2.910416,-1.16417 -4.550833,-1.16417 -0.873125,0 -1.508125,0.10584 -1.931458,0.3175 -0.396875,0.21167 -0.608542,0.47625 -0.608542,0.79375 0,0.37042 0.211667,0.635 0.661458,0.76729 0.449792,0.1323 1.190625,0.29105 2.2225,0.4498 1.296459,0.1852 2.38125,0.42333 3.227917,0.66145 0.846667,0.23813 1.5875,0.71438 2.2225,1.37584 0.635,0.66146 0.9525,1.61396 0.9525,2.80458 0,0.97896 -0.291042,1.87854 -0.899583,2.67229 -0.608542,0.79375 -1.481667,1.40229 -2.672292,1.85209 -1.190625,0.44979 -2.566458,0.66145 -4.206875,0.66145 z"
       id="path28"
       inkscape:connector-curvature="0"
       style="clip-rule:evenodd;fill:#ffffff;fill-rule:evenodd;stroke-width:0.26458332" />
    <polygon
       class="st0"
       points="548.5,29.7 523.8,55.2 550.6,89.3 525.3,89.3 508.6,68.4 502.4,74.7 502.4,89.3 481.5,89.3 481.5,7.7 502.4,7.7 502.4,50.5 523.8,29.7 "
       id="polygon30"
       transform="matrix(0.26458333,0,0,0.26458333,-87.609215,102.0739)"
       style="clip-rule:evenodd;fill:#ffffff;fill-rule:evenodd" />
    <rect
       x="59.710785"
       y="109.93202"
       class="st0"
       width="5.5297914"
       height="15.769166"
       id="rect32"
       style="clip-rule:evenodd;fill:#ffffff;fill-rule:evenodd;stroke-width:0.26458332" />
    <path
       class="st0"
       d="m 62.462455,108.18577 c -1.005417,0 -1.825625,-0.29104 -2.434167,-0.84666 -0.608541,-0.55563 -0.926041,-1.27 -0.926041,-2.09021 0,-0.82021 0.3175,-1.53458 0.926041,-2.09021 0.608542,-0.55562 1.42875,-0.84667 2.434167,-0.84667 1.005417,0 1.825625,0.26459 2.434167,0.79375 0.608541,0.52917 0.926041,1.21709 0.926041,2.06375 0,0.87313 -0.3175,1.5875 -0.926041,2.16959 -0.608542,0.58208 -1.42875,0.84666 -2.434167,0.84666 z"
       id="path34"
       inkscape:connector-curvature="0"
       style="clip-rule:evenodd;fill:#ffffff;fill-rule:evenodd;stroke-width:0.26458332" />
    <rect
       x="68.812454"
       y="104.11119"
       class="st0"
       width="5.5297914"
       height="21.59"
       id="rect36"
       style="clip-rule:evenodd;fill:#ffffff;fill-rule:evenodd;stroke-width:0.26458332" />
    <rect
       x="77.914116"
       y="104.11119"
       class="st0"
       width="5.5297914"
       height="21.59"
       id="rect38"
       style="clip-rule:evenodd;fill:#ffffff;fill-rule:evenodd;stroke-width:0.26458332" />
    <ellipse
       id="Oval-Copy-2"
       class="st3"
       cx="62.409538"
       cy="105.19598"
       rx="3.7041667"
       ry="3.0427084"
       style="clip-rule:evenodd;fill:#00d2e5;fill-rule:evenodd;stroke-width:0.26458332" />
  </g>
</svg>
